<svg width="24" xmlns="http://www.w3.org/2000/svg" height="24" id="screenshot-a6d48db6-cad8-8083-8007-a3313a10e58e" viewBox="0 0 24 24" xmlns:xlink="http://www.w3.org/1999/xlink" fill="none" version="1.1"><g id="shape-a6d48db6-cad8-8083-8007-a3313a10e58e"><g class="frame-container-wrapper"><g class="frame-container-blur"><g class="frame-container-shadows"><g fill="none"><g class="fills" id="fills-a6d48db6-cad8-8083-8007-a3313a10e58e"><rect rx="0" ry="0" x="0" y="0" width="24" height="24" transform="matrix(1.000000, 0.000000, 0.000000, 1.000000, 0.000000, 0.000000)" class="frame-background"/></g><g class="frame-children"><g id="shape-a6d48db6-cad8-8083-8007-a3313a113854" rx="0" ry="0"><g id="shape-a6d48db6-cad8-8083-8007-a3313a113855"><g class="fills" id="fills-a6d48db6-cad8-8083-8007-a3313a113855"><rect rx="0" ry="0" x="0" y="0" transform="matrix(1.000000, 0.000000, 0.000000, 1.000000, 0.000000, 0.000000)" width="24" height="24"/></g></g><g id="shape-a6d48db6-cad8-8083-8007-a3313a113856"><g class="fills" id="fills-a6d48db6-cad8-8083-8007-a3313a113856"><path d="M7.839569091796875,18.7880859375C7.26361083984375,18.45050048828125,6.720947265625,18.03466796875,6.22705078125,17.54071044921875C3.10491943359375,14.41864013671875,3.10491943359375,9.34912109375,6.22705078125,6.22705078125C9.34912109375,3.10498046875,14.41864013671875,3.10498046875,17.540771484375,6.22705078125C18.028717041015625,6.71490478515625,18.4404296875,7.25054931640625,18.77587890625,7.81884765625C16.2550048828125,8.54052734375,13.8720703125,9.89581298828125,11.8839111328125,11.8839111328125C9.895751953125,13.8720703125,8.54058837890625,16.2550048828125,7.818511962890625,18.78155517578125M19.3084716796875,10.8232421875C18.918243408203125,10.4329833984375,18.2845458984375,10.4329833984375,17.894287109375,10.8232421875L17.18719482421875,11.5302734375C16.796905517578125,11.9205322265625,16.796905517578125,12.5543212890625,17.18719482421875,12.944580078125L17.18719482421875,12.944580078125C17.57745361328125,13.3348388671875,18.21112060546875,13.3348388671875,18.601409912109375,12.944580078125L19.3084716796875,12.23736572265625C19.698760986328125,11.84716796875,19.698760986328125,11.21343994140625,19.3084716796875,10.8232421875L19.3084716796875,10.8232421875M16.12652587890625,14.00531005859375C16.51678466796875,14.3955078125,16.51678466796875,15.02923583984375,16.12652587890625,15.41943359375L15.41943359375,16.12652587890625C15.0291748046875,16.51678466796875,14.395477294921875,16.51678466796875,14.00518798828125,16.12652587890625L14.00518798828125,16.12652587890625C13.61492919921875,15.736328125,13.61492919921875,15.1025390625,14.00518798828125,14.7122802734375L14.712310791015625,14.00531005859375C15.1025390625,13.61492919921875,15.73626708984375,13.61492919921875,16.12652587890625,14.00531005859375L16.12652587890625,14.00531005859375M12.944549560546875,17.18719482421875C13.3348388671875,17.57745361328125,13.3348388671875,18.211181640625,12.944549560546875,18.6014404296875L12.2374267578125,19.3084716796875C11.84716796875,19.69873046875,11.2135009765625,19.69873046875,10.8232421875,19.3084716796875L10.8232421875,19.3084716796875C10.4329833984375,18.918212890625,10.4329833984375,18.2845458984375,10.8232421875,17.894287109375L11.53033447265625,17.18719482421875C11.92059326171875,16.79693603515625,12.55426025390625,16.796875,12.944549560546875,17.18719482421875L12.944549560546875,17.18719482421875" style="fill: rgb(255, 255, 255); fill-opacity: 1;"/></g></g></g></g></g></g></g></g></g></svg>