<svg width="135" xmlns="http://www.w3.org/2000/svg" height="24" id="screenshot-3919b168-e98b-80e9-8007-9b1f806587a6" viewBox="0 0 135 24" xmlns:xlink="http://www.w3.org/1999/xlink" fill="none" version="1.1"><style>/* vietnamese */
@font-face {
  font-family: 'Lexend';
  font-style: normal;
  font-weight: 400;
  font-display: block;
  src: url(http://penpot-frontend:8080/internal/gfonts/font/lexend/v26/wlptgwvFAVdoq2_F94zlCfv0bz1WCzsWzLhnepKu.woff2) format('woff2');
  unicode-range: U+0102-0103, U+0110-0111, U+0128-0129, U+0168-0169, U+01A0-01A1, U+01AF-01B0, U+0300-0301, U+0303-0304, U+0308-0309, U+0323, U+0329, U+1EA0-1EF9, U+20AB;
}
/* latin-ext */
@font-face {
  font-family: 'Lexend';
  font-style: normal;
  font-weight: 400;
  font-display: block;
  src: url(http://penpot-frontend:8080/internal/gfonts/font/lexend/v26/wlptgwvFAVdoq2_F94zlCfv0bz1WCzsWzLlnepKu.woff2) format('woff2');
  unicode-range: U+0100-02BA, U+02BD-02C5, U+02C7-02CC, U+02CE-02D7, U+02DD-02FF, U+0304, U+0308, U+0329, U+1D00-1DBF, U+1E00-1E9F, U+1EF2-1EFF, U+2020, U+20A0-20AB, U+20AD-20C0, U+2113, U+2C60-2C7F, U+A720-A7FF;
}
/* latin */
@font-face {
  font-family: 'Lexend';
  font-style: normal;
  font-weight: 400;
  font-display: block;
  src: url(http://penpot-frontend:8080/internal/gfonts/font/lexend/v26/wlptgwvFAVdoq2_F94zlCfv0bz1WCzsWzLdneg.woff2) format('woff2');
  unicode-range: U+0000-00FF, U+0131, U+0152-0153, U+02BB-02BC, U+02C6, U+02DA, U+02DC, U+0304, U+0308, U+0329, U+2000-206F, U+20AC, U+2122, U+2191, U+2193, U+2212, U+2215, U+FEFF, U+FFFD;
}
</style><g id="shape-3919b168-e98b-80e9-8007-9b1f806587a6"><g class="frame-container-wrapper"><g class="frame-container-blur"><g class="frame-container-shadows"><g fill="none"><g class="fills" id="fills-3919b168-e98b-80e9-8007-9b1f806587a6"><rect rx="0" ry="0" x="0" y="0" width="135" height="24.000000000000007" transform="matrix(1.000000, 0.000000, 0.000000, 1.000000, 0.000000, 0.000000)" class="frame-background"/></g><g class="frame-children"><g id="shape-d00066ee-a873-80cc-8007-9cccd4118105"><g class="frame-container-wrapper"><g class="frame-container-blur"><g class="frame-container-shadows"><g fill="none"><g class="fills" id="fills-d00066ee-a873-80cc-8007-9cccd4118105"><rect rx="0" ry="0" x="0" y="2.1316282072803006e-14" width="24" height="24" transform="matrix(1.000000, 0.000000, 0.000000, 1.000000, 0.000000, 0.000000)" class="frame-background"/></g><g class="frame-children"><g id="shape-d00066ee-a873-80cc-8007-9cccd411810a" rx="0" ry="0"><g id="shape-d00066ee-a873-80cc-8007-9cccd411810b"><g class="fills" id="fills-d00066ee-a873-80cc-8007-9cccd411810b"><rect rx="0" ry="0" x="0" y="2.1316282072803006e-14" transform="matrix(1.000000, 0.000000, 0.000000, 1.000000, 0.000000, 0.000000)" width="24" height="24"/></g></g><g id="shape-d00066ee-a873-80cc-8007-9cccd411810c"><g class="fills" id="fills-d00066ee-a873-80cc-8007-9cccd411810c"><path d="M7.839569091796875,18.7880859375C7.2635955810546875,18.45050048828125,6.720947265625,18.03466796875,6.2270355224609375,17.54071044921875C3.1049041748046875,14.41864013671875,3.1049346923828125,9.34912109375,6.2270355224609375,6.22705078125C9.34912109375,3.10498046875,14.418655395507812,3.10498046875,17.540756225585938,6.22705078125C18.028717041015625,6.71490478515625,18.4404296875,7.25054931640625,18.77587890625,7.81884765625C16.255020141601562,8.54052734375,13.872055053710938,9.89581298828125,11.883895874023438,11.8839111328125C9.895736694335938,13.8720703125,8.540603637695312,16.2550048828125,7.818511962890625,18.78155517578125M19.308486938476562,10.8232421875C18.918243408203125,10.4329833984375,18.2845458984375,10.4329833984375,17.894287109375,10.8232421875L17.187179565429688,11.5302734375C16.796905517578125,11.9205322265625,16.796905517578125,12.5543212890625,17.187179565429688,12.944580078125L17.187179565429688,12.944580078125C17.577438354492188,13.3348388671875,18.211135864257812,13.3348388671875,18.601409912109375,12.944580078125L19.308486938476562,12.23736572265625C19.698760986328125,11.84716796875,19.698760986328125,11.21343994140625,19.308486938476562,10.8232421875L19.308486938476562,10.8232421875M16.12652587890625,14.00531005859375C16.51678466796875,14.3955078125,16.51678466796875,15.02923583984375,16.12652587890625,15.41943359375L15.419418334960938,16.12652587890625C15.0291748046875,16.51678466796875,14.395477294921875,16.51678466796875,14.005203247070312,16.12652587890625L14.005203247070312,16.12652587890625C13.614944458007812,15.736328125,13.614944458007812,15.1025390625,14.005203247070312,14.7122802734375L14.712310791015625,14.00531005859375C15.102554321289062,13.61492919921875,15.736282348632812,13.61492919921875,16.12652587890625,14.00531005859375L16.12652587890625,14.00531005859375M12.944549560546875,17.18719482421875C13.334823608398438,17.57745361328125,13.334823608398438,18.211181640625,12.944549560546875,18.6014404296875L12.2374267578125,19.3084716796875C11.847183227539062,19.69873046875,11.213485717773438,19.69873046875,10.8232421875,19.3084716796875L10.8232421875,19.3084716796875C10.432968139648438,18.918212890625,10.432968139648438,18.2845458984375,10.8232421875,17.894287109375L11.530349731445312,17.18719482421875C11.92059326171875,16.79693603515625,12.554275512695312,16.796875,12.944549560546875,17.18719482421875L12.944549560546875,17.18719482421875" style="fill: rgb(244, 63, 94); fill-opacity: 1;"/></g></g></g></g></g></g></g></g></g><g id="shape-3919b168-e98b-80e9-8007-9b1eba6254ca"><g transform="matrix(1.000000, 0.000000, 0.000000, 1.000000, 0.000000, 0.000000)" class="text-container" x="26" y="3.500000000000014" width="109" height="16.999999999999993" rx="0" ry="0"><defs><pattern patternUnits="objectBoundingBox" width="108.83332824707031" height="17.5" id="fill-0-render-6-0"><g><rect width="108.83332824707031" height="17.5" style="fill: rgb(0, 0, 0); fill-opacity: 1;"/></g></pattern></defs><g class="fills" id="fills-3919b168-e98b-80e9-8007-9b1eba6254ca"><text x="26" y="20.649993896484382" dominant-baseline="ideographic" textLength="108.83332824707031" lengthAdjust="spacingAndGlyphs" style="text-transform: none; font-family: Lexend; letter-spacing: normal; font-style: normal; font-weight: 400; white-space: pre; font-size: 14px; text-decoration: none; direction: ltr; fill: rgb(0, 0, 0); fill-opacity: 1;">KiraNastro VSTi</text></g></g></g></g></g></g></g></g></g></svg>